<svg width="900" height="430" viewBox="0 0 900 430" xmlns="http://www.w3.org/2000/svg">
  <defs>
    <style>
      .mono { font-family: 'SF Mono','Fira Code','Consolas',monospace; font-size: 14.5px; }
    </style>
  </defs>

  <rect width="900" height="430" rx="12" fill="#0d0f12"/>

  <rect width="900" height="38" rx="12" fill="#1c1f25"/>
  <rect y="26" width="900" height="12" fill="#1c1f25"/>
  <circle cx="24" cy="19" r="6.5" fill="#ff5f57"/>
  <circle cx="46" cy="19" r="6.5" fill="#febc2e"/>
  <circle cx="68" cy="19" r="6.5" fill="#28c840"/>
  <text x="450" y="24" text-anchor="middle" class="mono" font-size="13" fill="#7d8590">driln — zsh</text>

  <g class="mono">
    <text x="24" y="70" fill="#7d8590">$</text>
    <text x="42" y="70" fill="#e9eaed">driln scan scanme.nmap.org --type full</text>

    <text x="24" y="106" fill="#e9eaed" font-weight="700">subfinder</text>
    <text x="122" y="106" fill="#5f6570">━━━━━━━━━━━━━━━━━━━━━━━━━</text>
    <text x="345" y="106" fill="#9aa0ac">done</text>
    <text x="384" y="106" fill="#9aa0ac">0 findings</text>
    <text x="480" y="106" fill="#5f6570">0:00:30</text>

    <text x="24" y="132" fill="#e9eaed" font-weight="700">httpx</text>
    <text x="122" y="132" fill="#5f6570">━━━━━━━━━━━━━━━━━━━━━━━━━</text>
    <text x="345" y="132" fill="#ff6b60">failed</text>
    <text x="480" y="132" fill="#5f6570">0:00:32</text>

    <text x="24" y="158" fill="#e9eaed" font-weight="700">nmap</text>
    <text x="122" y="158" fill="#5f6570">━━━━━━━━━━━━━━━━━━━━━━━━━</text>
    <text x="345" y="158" fill="#4ade80">done</text>
    <text x="384" y="158" fill="#4ade80">4 findings</text>
    <text x="480" y="158" fill="#5f6570">0:02:02</text>

    <text x="24" y="184" fill="#e9eaed" font-weight="700">nuclei</text>
    <text x="122" y="184" fill="#5f6570">━━━━━━━━━━━━━━━━━━━━━━━━━</text>
    <text x="345" y="184" fill="#9aa0ac">done</text>
    <text x="384" y="184" fill="#9aa0ac">0 findings</text>
    <text x="480" y="184" fill="#5f6570">0:02:04</text>

    <text x="24" y="228" fill="#4ade80" font-weight="700">✓ Scan complete · 4 findings · 4 info</text>
    <text x="24" y="254" fill="#7d8590">Report:</text>
    <text x="90" y="254" fill="#e9eaed">output/scanme.nmap.org_2026-09-25_09-26/scanme.nmap.org_report.md</text>
    <text x="24" y="280" fill="#7d8590">Scan ID:</text>
    <text x="108" y="280" fill="#e9eaed">2d088e53-e09b-49ad-aa66-76983ad533dc</text>

    <text x="24" y="324" fill="#7d8590">$</text>
    <text x="42" y="324" fill="#e9eaed">driln report 2d088e53-e09b-49ad-aa66-76983ad533dc --no-ai</text>

    <rect x="20" y="350" width="740" height="46" rx="8" fill="#1c1f25"/>
    <text x="36" y="378" fill="#e9eaed">File:</text>
    <text x="90" y="378" fill="#9aa0ac">output/scanme.nmap.org_2026-09-25_09-26/scanme.nmap.org_report.md</text>

    <text x="24" y="416" fill="#7d8590">$</text>
    <rect x="42" y="404" width="9" height="16" fill="#e9eaed"/>
  </g>
</svg>
